<?xml version="1.0" encoding="UTF-8"?>
<svg xmlns="http://www.w3.org/2000/svg" viewBox="10 0 380 380" role="img" aria-label="MOED">
    <rect x="10" width="380" height="380" rx="48" fill="#151a23"/>
    <path d="M296.03 163.42C293.52 163.77 292.59 165.73 290.77 167.5C286.65 171.5 282.42 175.63 278.44 179.76C263.88 194.86 249.18 209.86 234.4 224.75C230.36 228.82 222.06 239.45 216.57 240.19C210.71 240.99 201.61 228.27 197.46 224.17C186.34 213.18 175.58 201.69 164.79 190.37C159 184.29 151.82 174.95 145.19 170.22C143.32 172.04 143.84 175.78 143.85 178.42C143.86 185.72 143.95 193.03 143.96 200.34C144 223.38 144.05 246.42 143.97 269.45C143.95 274.99 143.98 280.53 143.96 286.06C143.95 288.47 144.13 291.55 142.15 293.32C140.19 295.08 136.97 294.62 134.56 294.62C128.58 294.62 122.6 294.65 116.62 294.67C111.5 294.69 97.3 296.2 93.33 293.73C90.29 291.84 90.73 287.79 90.72 284.73C90.7 276.32 90.85 267.9 90.82 259.48C90.72 228.92 90.8 198.35 90.8 167.78C90.8 160.47 90.78 153.16 90.78 145.86C90.79 142.82 90.41 138.71 92.99 136.51C95.6 134.28 100.14 134.79 103.33 134.77C111.08 134.74 118.83 134.86 126.59 134.79C139.43 134.68 152.28 134.78 165.13 134.78C170.21 134.78 177.54 133.44 182.17 135.8C186.05 137.78 188.88 141.65 191.81 144.76C198.04 151.37 204.37 157.88 210.68 164.42C213.16 166.99 215.27 170.03 218.28 171.99C221.66 171.21 224.23 167.57 226.58 165.12C232.54 158.91 238.51 152.64 244.58 146.56C257.41 133.69 270.19 120.81 283.04 107.95C288.72 102.25 294.25 94.15 301.82 90.82C305.95 89.01 311.56 89.77 315.96 89.74C323.78 89.68 342.78 88.33 349.39 90.1C354.44 91.45 353.81 97.24 353.79 101.33C353.74 112.19 353.69 123.04 353.78 133.89C354.09 174.2 353.76 214.52 353.75 254.83C353.74 264.36 353.52 273.88 353.7 283.4C353.76 286.67 354.68 291.81 351.29 293.81C349.03 295.14 345.71 294.56 343.21 294.55C337.9 294.52 332.58 294.69 327.26 294.69C320.31 294.68 313.35 294.82 306.41 294.7C303.87 294.65 300.33 295.25 298.25 293.46C295.82 291.38 296.37 287.57 296.39 284.73C296.46 277.2 296.65 269.67 296.6 262.14C296.44 238.22 296.55 214.3 296.49 190.38C296.47 183.95 296.5 177.53 296.46 171.11C296.44 168.73 297.26 165.43 296.03 163.42Z" fill="#f3f6fb"/>
    <path d="M172.29 124.59C170.3 127.45 167.06 127.04 163.8 127.03C156.93 127.01 150.06 126.93 143.2 126.93C130.79 126.93 118.39 126.98 105.99 126.98C101.98 126.98 95.03 128.36 91.58 126.02C86.12 122.33 84.45 113.44 81.97 107.78C80.29 103.92 75.73 97.01 77.05 92.73C77.99 89.69 82.24 89.88 84.72 89.84C92.03 89.72 99.34 89.74 106.65 89.74C114.62 89.74 122.6 89.77 130.57 89.78C134.71 89.79 139.69 89.2 143.66 90.64C146.8 91.78 148.99 95.94 151.21 98.31C156.52 103.97 161.54 110.25 166.43 116.32C168.69 119.13 171.33 120.98 172.29 124.59Z" fill="#d6b66f"/>
</svg>
